# xmcd
#
# Track frame offsets: 
#        150
#        12487
#        23445
#        34442
#        45712
#        58705
#        72497
#        83237
#        94242
#        104427
#        116945
#        128102
#        138760
#        151702
#        161475
#        176575
#        185750
#        196682
#        210357
#        224242
#        237550
#        248085
#
# Disc length: 3414 seconds
#
# Revision: 1
# Processed by: cddbd v1.5.2PL0 Copyright (c) Steve Scherf et al.
# Submitted via: ExactAudioCopy v1.0b1
#
DISCID=3d0d5416
DTITLE=Etta James - R&B Dynamite
DYEAR=1986
DGENRE=R&B
TTITLE0=W-O-M-A-N (mono)
TTITLE1=Number One (mono)
TTITLE2=I'm A Fool (mono)
TTITLE3=Strange Things Happen (mono)
TTITLE4=Hey Henry (mono)
TTITLE5=Hope You're Satisfied (mono)
TTITLE6=Good Rockin' Daddy (mono)
TTITLE7=Sunshine Of Love (mono)
TTITLE8=That's All (mono)
TTITLE9=How Big A Fool (mono)
TTITLE10=Tears Of Joy (mono)
TTITLE11=The Pick Up (mono)
TTITLE12=Market Place (mono)
TTITLE13=Tough Lover (mono)
TTITLE14=Do Something Crazy (mono)
TTITLE15=Be My Lovey Dovey (mono)
TTITLE16=Nobody Loves You (Like Me) (mono)
TTITLE17=Hickory Dickory Dock (mono)
TTITLE18=You Know What I Mean (mono)
TTITLE19=The Wallflower (Roll With Me Henry) (mono)
TTITLE20=Baby, Baby Every Night (mono)
TTITLE21=We're In Love (mono)
EXTD=
EXTT0=
EXTT1=
EXTT2=
EXTT3=
EXTT4=
EXTT5=
EXTT6=
EXTT7=
EXTT8=
EXTT9=
EXTT10=
EXTT11=
EXTT12=
EXTT13=
EXTT14=
EXTT15=
EXTT16=
EXTT17=
EXTT18=
EXTT19=
EXTT20=
EXTT21=
PLAYORDER=
